<mxfile host="app.diagrams.net" modified="2023-04-12T10:06:10.154Z" agent="Mozilla/5.0 (X11; Linux x86_64) AppleWebKit/537.36 (KHTML, like Gecko) Chrome/112.0.0.0 Safari/537.36" version="21.1.7" etag="hhq5lgsiThH-s41RLnrn" type="github">
  <diagram name="Page-1" id="8g3YrmZKxo8fwInIkrP0">
    <mxGraphModel>
      <root>
        <mxCell id="0" />
        <mxCell id="1" parent="0" />
      </root>
    </mxGraphModel>
  </diagram>
</mxfile>
